<svg width="552" height="205" viewBox="0 0 552 205" fill="none" xmlns="http://www.w3.org/2000/svg">
<mask id="mask0_494_772" style="mask-type:luminance" maskUnits="userSpaceOnUse" x="0" y="0" width="193" height="180">
<path d="M0 0H192.236V179.562H0V0Z" fill="white"/>
</mask>
<g mask="url(#mask0_494_772)">
<path fill-rule="evenodd" clip-rule="evenodd" d="M0.0616936 163.92C0.0616936 168.301 -0.681834 173.878 2.99356 176.966C5.05304 178.696 7.20758 179.355 10.902 179.355H181.385C188.575 179.355 192.225 175.696 192.225 168.523C192.225 161.031 192.57 163.939 189.089 162.723C185.774 161.563 183.573 158.758 183.292 154.975C182.895 149.65 183.282 142.624 183.282 137.113C183.282 131.393 183.643 86.8259 183.126 83.3871C182.931 82.1071 182.959 80.4088 182.819 79.359C182.614 77.8022 182.57 76.7609 182.355 75.221C180.954 65.2489 178.031 56.561 173.705 47.8478C170.492 41.3779 163.838 31.9275 158.686 26.8411C156.01 24.1986 151.978 20.4957 149.054 18.3201C147.217 16.9534 145.765 15.9184 143.818 14.6151C141.9 13.3308 140.2 12.4416 138.237 11.2566C136.547 10.2363 134.015 8.95206 132.135 8.14727C112.75 -0.145587 98.4459 -2.18184 77.4624 2.42507C61.2463 5.98429 50.5751 12.055 38.4674 22.2257C35.5081 24.7119 32.0883 28.3197 29.5387 31.1755C27.268 33.7187 21.6852 41.6715 20.2975 44.4174C15.0378 54.8353 11.5188 62.3529 9.83316 74.5789C8.48974 84.3123 9.00514 90.778 9.00514 100.83C9.00514 112.835 9.00514 124.839 9.00514 136.843C9.00514 142.354 9.39169 149.379 8.99458 154.702C8.65239 159.286 5.82825 162.332 1.59522 163.016C0.708055 163.16 0.0616936 162.955 0.0616936 163.92ZM52.079 85.6832L87.8338 98.0971L59.1214 123.271C55.9297 125.791 51.7579 129.843 48.6951 132.352C47.7277 133.144 46.8659 133.943 45.8942 134.71L32.8593 146.057C31.7419 147.104 31.3088 147.349 30.278 148.344L13.0544 163.356C12.5348 163.8 12.2116 163.969 11.6983 164.451C10.6591 165.422 10.1753 165.851 9.153 166.768C7.79691 167.982 4.74042 170.23 3.81312 171.518C5.29595 170.95 6.72386 169.943 8.22993 169.104C9.7022 168.286 11.1364 167.448 12.5453 166.643L108.192 111.918C113.984 108.616 119.645 105.279 125.591 101.954C127.653 100.803 142.308 92.5672 142.891 91.8933L105.782 79.209C106.58 77.7304 132.707 49.2187 135.977 45.4546L151.946 27.3839L52.079 85.6832Z" fill="#6B46FF"/>
</g>
<mask id="mask1_494_772" style="mask-type:luminance" maskUnits="userSpaceOnUse" x="34" y="177" width="54" height="28">
<path d="M34.4166 177.398H87.9506V204.402H34.4166V177.398Z" fill="white"/>
</mask>
<g mask="url(#mask1_494_772)">
<path fill-rule="evenodd" clip-rule="evenodd" d="M34.7919 178.438C34.7919 190.206 43.4269 200.852 55.0572 203.68C67.2663 206.65 80.6772 200.104 85.4404 188.423C86.1523 186.678 86.6254 185.145 87.0373 183.248C87.3309 181.902 88.2984 177.895 86.8303 177.895H35.6051C35.1615 177.895 34.7919 178.058 34.7919 178.438Z" fill="#6B46FF"/>
</g>
<mask id="mask2_494_772" style="mask-type:luminance" maskUnits="userSpaceOnUse" x="99" y="177" width="54" height="28">
<path d="M99.8433 177.4H152.836V204.403H99.8433V177.4Z" fill="white"/>
</mask>
<g mask="url(#mask2_494_772)">
<path fill-rule="evenodd" clip-rule="evenodd" d="M99.927 178.439C99.927 190.206 108.562 200.852 120.194 203.681C132.404 206.651 145.812 200.105 150.578 188.424C151.287 186.679 151.761 185.145 152.175 183.249C152.466 181.903 153.436 177.896 151.965 177.896H100.74C100.297 177.896 99.927 178.059 99.927 178.439Z" fill="#6B46FF"/>
</g>
<path d="M198.165 74.1981V51.679H295.132V74.1981H260.345V166.403H233.008V74.1981H198.165ZM320.642 168.028C311.642 168.028 303.874 166.254 297.339 162.706C290.841 159.121 285.837 154.023 282.326 147.413C278.853 140.766 277.116 132.867 277.116 123.718C277.116 114.83 278.872 107.062 282.382 100.414C285.893 93.7296 290.841 88.5387 297.227 84.8415C303.613 81.107 311.138 79.2397 319.802 79.2397C325.927 79.2397 331.528 80.192 336.607 82.0966C341.686 84.0012 346.074 86.8208 349.771 90.5553C353.469 94.2898 356.344 98.9019 358.398 104.392C360.452 109.844 361.479 116.099 361.479 123.158V129.992H286.695V114.083H335.991C335.954 111.17 335.263 108.574 333.918 106.296C332.574 104.018 330.725 102.244 328.373 100.975C326.057 99.6675 323.387 99.014 320.362 99.014C317.3 99.014 314.555 99.7049 312.128 101.087C309.7 102.431 307.777 104.28 306.358 106.632C304.939 108.948 304.192 111.581 304.117 114.531V130.72C304.117 134.23 304.808 137.311 306.19 139.963C307.571 142.577 309.532 144.612 312.072 146.069C314.611 147.525 317.636 148.254 321.146 148.254C323.574 148.254 325.777 147.917 327.756 147.245C329.736 146.573 331.435 145.583 332.854 144.276C334.273 142.969 335.338 141.363 336.047 139.459L361.199 140.187C360.153 145.826 357.857 150.737 354.309 154.92C350.798 159.065 346.186 162.295 340.473 164.611C334.759 166.889 328.149 168.028 320.642 168.028ZM387.088 51.679V166.403H359.695V51.679H387.088ZM428.969 168.028C419.969 168.028 412.201 166.254 405.666 162.706C399.168 159.121 394.164 154.023 390.653 147.413C387.18 140.766 385.444 132.867 385.444 123.718C385.444 114.83 387.199 107.062 390.709 100.414C394.22 93.7296 399.168 88.5387 405.554 84.8415C411.94 81.107 419.465 79.2397 428.129 79.2397C434.254 79.2397 439.855 80.192 444.934 82.0966C450.013 84.0012 454.401 86.8208 458.099 90.5553C461.796 94.2898 464.671 98.9019 466.725 104.392C468.779 109.844 469.806 116.099 469.806 123.158V129.992H395.023V114.083H444.318C444.281 111.17 443.59 108.574 442.246 106.296C440.901 104.018 439.053 102.244 436.7 100.975C434.384 99.6675 431.714 99.014 428.689 99.014C425.627 99.014 422.882 99.7049 420.455 101.087C418.027 102.431 416.104 104.28 414.685 106.632C413.266 108.948 412.519 111.581 412.444 114.531V130.72C412.444 134.23 413.135 137.311 414.517 139.963C415.899 142.577 417.859 144.612 420.399 146.069C422.938 147.525 425.963 148.254 429.474 148.254C431.901 148.254 434.104 147.917 436.084 147.245C438.063 146.573 439.762 145.583 441.181 144.276C442.6 142.969 443.665 141.363 444.374 139.459L469.526 140.187C468.481 145.826 466.184 150.737 462.636 154.92C459.126 159.065 454.513 162.295 448.8 164.611C443.086 166.889 436.476 168.028 428.969 168.028ZM490.093 80.3601L504.266 108.705L518.942 80.3601H546.559L522.527 123.382L547.455 166.403H520.063L504.266 137.834L488.861 166.403H461.076L486.06 123.382L462.308 80.3601H490.093Z" fill="#6B46FF"/>
</svg>
